<svg width="150" height="53" viewBox="0 0 150 53" fill="none" xmlns="http://www.w3.org/2000/svg"><path d="M33.9 21.47C30.57 22.1 28.92 21.7 28.76 21.02C28.71 20.8 28.8 20.5 29.03 20.15C30.2 18.35 34.29 15.81 38.97 13.97C41.22 13.08 43.44 12.42 45.38 12.05C48.71 11.42 50.36 11.82 50.51 12.5C50.57 12.72 50.48 13.02 50.25 13.37C49.08 15.17 44.99 17.71 40.31 19.55C38.06 20.44 35.84 21.1 33.9 21.47L33.9 21.47Z" fill="#191B2A"/><path d="M34.66 28.59C30.34 28.91 27.51 27.88 27.67 26.75C27.71 26.5 27.9 26.23 28.23 25.95C29.31 25.01 32.05 23.92 35.7 23.59C35.82 23.58 35.94 23.57 36.06 23.56C40.37 23.24 43.2 24.27 43.03 25.4C42.99 25.65 42.81 25.92 42.48 26.2C41.39 27.14 38.65 28.24 35.01 28.56C34.89 28.57 34.78 28.58 34.66 28.59L34.66 28.59Z" fill="#191B2A"/><path d="M31.83 34.1C31.82 32.06 30.07 30.42 27.93 30.43C26.54 30.44 25.33 31.15 24.66 32.19L24.66 32.19L24.64 32.21C24.62 32.25 24.6 32.29 24.57 32.33L21.23 37.84L7.24 14.5C6.18 12.73 3.81 12.11 1.95 13.12C0.14 14.11 -0.52 16.28 0.44 18.03L0.44 18.04L0.46 18.07C0.48 18.1 0.49 18.13 0.51 18.16C0.53 18.19 0.55 18.21 0.56 18.24L20.65 51.76L20.65 51.75C20.75 51.95 20.97 52.08 21.21 52.08C21.44 52.08 21.65 51.96 21.76 51.79L21.76 51.79L31.36 35.89L31.36 35.89C31.67 35.36 31.84 34.74 31.83 34.1Z" fill="#191B2A"/><path d="M49.81 0.48C48.82 -0.95 43.24 0.9 37.33 4.61C31.43 8.32 27.45 12.49 28.44 13.92C29.43 15.35 35.01 13.5 40.92 9.79C46.82 6.08 50.8 1.92 49.81 0.48Z" fill="#191B2A"/><path d="M77.85 15L72.83 28.19H72.77L67.37 15H62.65L71.25 37H73.82L82.56 15H77.85Z" fill="#191B2A"/><path d="M84.74 27.63C84.8 27.26 84.9 26.91 85.04 26.57C85.18 26.23 85.36 25.94 85.59 25.68C85.82 25.42 86.1 25.21 86.43 25.05C86.76 24.89 87.13 24.81 87.55 24.81C87.94 24.81 88.3 24.89 88.62 25.05C88.94 25.21 89.22 25.43 89.46 25.69C89.69 25.96 89.88 26.26 90.02 26.59C90.16 26.92 90.26 27.26 90.32 27.63H84.74ZM92.58 24.24C92.01 23.56 91.29 23.02 90.41 22.62C89.54 22.22 88.5 22.03 87.31 22.03C86.11 22.03 85.07 22.22 84.19 22.61C83.3 22.99 82.57 23.53 81.98 24.21C81.39 24.9 80.95 25.7 80.65 26.62C80.35 27.54 80.2 28.52 80.2 29.59C80.2 30.65 80.37 31.62 80.71 32.51C81.05 33.41 81.53 34.18 82.16 34.83C82.78 35.48 83.55 35.99 84.46 36.35C85.36 36.71 86.38 36.89 87.52 36.89C89.07 36.89 90.43 36.51 91.62 35.76C92.8 35 93.65 33.92 94.17 32.51L90.32 31.92C90.04 32.47 89.68 32.92 89.23 33.28C88.78 33.64 88.21 33.82 87.52 33.82C86.98 33.82 86.52 33.71 86.14 33.48C85.76 33.26 85.47 32.97 85.25 32.61C85.03 32.25 84.87 31.85 84.77 31.41C84.67 30.97 84.62 30.53 84.62 30.1H94.26V29.62C94.26 28.57 94.12 27.59 93.84 26.66C93.56 25.73 93.14 24.92 92.58 24.24Z" fill="#191B2A"/><path d="M104.18 22.03C103.4 22.03 102.7 22.19 102.09 22.52C101.47 22.85 100.95 23.32 100.53 23.93H100.48V22.48H96.3V36.44H100.48V30.15C100.48 29.62 100.51 29.08 100.56 28.53C100.63 27.98 100.76 27.49 100.98 27.04C101.2 26.6 101.52 26.24 101.95 25.96C102.38 25.69 102.95 25.55 103.67 25.55C104.31 25.55 104.88 25.72 105.4 26.06L105.91 22.37C105.63 22.27 105.35 22.19 105.06 22.12C104.77 22.06 104.48 22.03 104.18 22.03Z" fill="#191B2A"/><path d="M116.09 29.26C115.8 28.95 115.47 28.68 115.11 28.48C114.76 28.27 114.39 28.09 114.01 27.94C113.63 27.78 113.27 27.65 112.91 27.53C112.55 27.4 112.23 27.27 111.94 27.13C111.65 26.99 111.42 26.83 111.25 26.66C111.08 26.49 110.99 26.27 110.99 26C110.99 25.66 111.14 25.38 111.43 25.15C111.72 24.92 112.03 24.81 112.37 24.81C112.79 24.81 113.19 24.91 113.56 25.1C113.94 25.29 114.28 25.51 114.58 25.78L116.37 23.48C115.77 22.98 115.03 22.62 114.15 22.38C113.26 22.14 112.43 22.03 111.65 22.03C110.96 22.03 110.33 22.14 109.76 22.37C109.19 22.59 108.7 22.91 108.3 23.3C107.89 23.7 107.57 24.18 107.34 24.74C107.11 25.3 106.99 25.9 106.99 26.54C106.99 27.11 107.08 27.59 107.25 27.98C107.42 28.37 107.64 28.7 107.91 28.99C108.18 29.27 108.49 29.51 108.85 29.7C109.21 29.89 109.56 30.06 109.92 30.21C110.28 30.36 110.64 30.5 110.99 30.62C111.36 30.75 111.67 30.88 111.94 31.04C112.21 31.19 112.42 31.36 112.59 31.56C112.76 31.76 112.85 32.01 112.85 32.31C112.85 32.77 112.68 33.14 112.36 33.41C112.03 33.68 111.64 33.82 111.18 33.82C110.56 33.82 109.99 33.66 109.46 33.34C108.94 33.02 108.47 32.64 108.07 32.2L106.16 34.56C106.8 35.3 107.57 35.87 108.48 36.28C109.38 36.69 110.33 36.89 111.33 36.89C112.1 36.89 112.83 36.78 113.52 36.55C114.2 36.32 114.81 35.99 115.33 35.57C115.84 35.14 116.26 34.63 116.56 34.02C116.87 33.41 117.03 32.72 117.03 31.95C117.03 31.34 116.94 30.82 116.77 30.38C116.6 29.95 116.38 29.57 116.09 29.26Z" fill="#191B2A"/><path d="M120.88 16.04C120.24 16.04 119.7 16.26 119.27 16.68C118.83 17.1 118.61 17.61 118.61 18.2C118.61 18.8 118.83 19.31 119.27 19.73C119.7 20.14 120.24 20.35 120.88 20.35C121.51 20.35 122.05 20.14 122.48 19.73C122.92 19.31 123.14 18.8 123.14 18.2C123.14 17.61 122.92 17.1 122.48 16.68C122.05 16.26 121.51 16.04 120.88 16.04Z" fill="#191B2A"/><path d="M122.96 22.48H118.78V36.44H122.96V22.48Z" fill="#191B2A"/><path d="M144.74 22.48L141.13 29.99L137.49 22.48H132.55H131.95H131.68V16.41H127.5V22.48H124.67V25.83H127.5V36.44H131.68V25.83H134.88L138.98 34.3L135.48 41.22H140.07L149.4 22.48H144.74Z" fill="#191B2A"/></svg>
